<svg width="14" height="24" viewBox="0 0 14 24" fill="none" xmlns="http://www.w3.org/2000/svg">
<path d="M13.4646 0.528277C13.8074 0.866635 14 1.32548 14 1.80392C14 2.28236 13.8074 2.74121 13.4646 3.07957L4.4136 12.0109L13.4646 20.9422C13.7977 21.2825 13.982 21.7383 13.9779 22.2114C13.9737 22.6845 13.7814 23.137 13.4424 23.4715C13.1034 23.8061 12.6447 23.9958 12.1653 23.9999C11.6859 24.004 11.224 23.8222 10.8792 23.4935L0.535358 13.2865C0.192569 12.9482 0 12.4893 0 12.0109C0 11.5325 0.192569 11.0736 0.535358 10.7352L10.8792 0.528277C11.222 0.190021 11.687 0 12.1719 0C12.6567 0 13.1217 0.190021 13.4646 0.528277Z" fill="#F2F2F2"/>
</svg>
