<svg width="18" height="35" viewBox="0 0 18 35" fill="none" xmlns="http://www.w3.org/2000/svg">
<path d="M17.595 0.427321C17.3606 0.180305 17.0497 0.0301173 16.719 0.00406475C16.3883 -0.0219878 16.0597 0.0778254 15.793 0.285355L15.6379 0.427321L0.405699 16.4714C0.171183 16.7183 0.0285933 17.0457 0.00385905 17.394C-0.0208753 17.7424 0.0738883 18.0885 0.270917 18.3694L0.405699 18.5328L15.6379 34.5768C15.8853 34.8354 16.2162 34.9862 16.5645 34.9991C16.9128 35.012 17.253 34.8861 17.517 34.6465C17.7811 34.4069 17.9497 34.0713 17.9891 33.7065C18.0285 33.3418 17.936 32.9748 17.7298 32.6788L17.595 32.5154L3.34136 17.5021L17.595 2.48874C17.8543 2.21526 18 1.84455 18 1.45803C18 1.07151 17.8543 0.700799 17.595 0.427321Z" fill="#4F4F4F"/>
</svg>
