<svg width="8" height="12" viewBox="0 0 8 12" fill="none" xmlns="http://www.w3.org/2000/svg">
<path d="M3.99994 1.91667V6.90417C3.45161 6.58917 2.77494 6.46667 2.05744 6.7175C1.27578 6.9975 0.674944 7.69167 0.534944 8.50833C0.470223 8.8758 0.494413 9.25342 0.605491 9.60963C0.71657 9.96583 0.911309 10.2903 1.17343 10.5558C1.43555 10.8214 1.75743 11.0203 2.11216 11.136C2.46689 11.2517 2.84417 11.2808 3.21244 11.2208C4.35578 11.04 5.16661 9.99 5.16661 8.82917V3.08333H6.33328C6.97495 3.08333 7.49995 2.55833 7.49995 1.91667C7.49995 1.275 6.97495 0.75 6.33328 0.75H5.16661C4.52494 0.75 3.99994 1.275 3.99994 1.91667Z" fill="#4F4F4F"/>
</svg>
