<svg width="17" height="22" viewBox="0 0 17 22" fill="none" xmlns="http://www.w3.org/2000/svg">
<path d="M3.1875 0.5C3.8764 0.5 4.55353 0.813332 5.06452 1.39946C5.5774 1.98776 5.875 2.79869 5.875 3.65625V18.2812C5.875 19.1388 5.5774 19.9497 5.06452 20.538C4.55354 21.1242 3.8764 21.4375 3.1875 21.4375C2.4986 21.4375 1.82146 21.1242 1.31048 20.538C0.797602 19.9497 0.5 19.1388 0.5 18.2812V3.65625C0.5 2.79869 0.797602 1.98776 1.31048 1.39946C1.82146 0.813332 2.4986 0.5 3.1875 0.5ZM13.8125 0.5C14.5014 0.5 15.1785 0.813332 15.6895 1.39946C16.2024 1.98776 16.5 2.79869 16.5 3.65625V18.2812C16.5 19.1388 16.2024 19.9497 15.6895 20.538C15.1785 21.1242 14.5014 21.4375 13.8125 21.4375C13.1236 21.4375 12.4465 21.1242 11.9355 20.538C11.4226 19.9497 11.125 19.1388 11.125 18.2812V3.65625C11.125 2.79869 11.4226 1.98776 11.9355 1.39946C12.4465 0.813332 13.1236 0.5 13.8125 0.5Z" fill="black" stroke="black"/>
</svg>
