<svg width="96" height="96" viewBox="0 0 96 96" fill="none" xmlns="http://www.w3.org/2000/svg">
<path d="M30.8571 96H10.2857C4.60714 96 0 91.3929 0 85.7143V10.2857C0 4.60714 4.60714 0 10.2857 0H30.8571C36.5357 0 41.1429 4.60714 41.1429 10.2857V85.7143C41.1429 91.3929 36.5357 96 30.8571 96ZM96 85.7143V10.2857C96 4.60714 91.3929 0 85.7143 0H65.1429C59.4643 0 54.8571 4.60714 54.8571 10.2857V85.7143C54.8571 91.3929 59.4643 96 65.1429 96H85.7143C91.3929 96 96 91.3929 96 85.7143Z" fill="white"/>
</svg>
