<svg width="34" height="39" viewBox="0 0 34 39" fill="none" xmlns="http://www.w3.org/2000/svg">
<path fill-rule="evenodd" clip-rule="evenodd" d="M0.0585965 3.75484C0.0585965 1.42731 3.16006 0.0776807 5.38466 0.9872C7.93308 2.65922 29.6043 14.8642 31.5644 16.4936C33.5245 18.123 34.0866 20.71 31.4312 22.6341C28.776 24.558 7.67168 36.9793 5.38466 38.058C3.09716 39.1365 0.153909 37.6692 0.0585965 34.9394C-0.036716 32.2097 0.0585965 6.08213 0.0585965 3.75484ZM3.26038 5.77546C3.26038 6.36974 3.24227 32.666 3.20891 33.2069C3.15411 34.094 3.92376 34.9854 4.99602 34.4567C6.06829 33.9277 28.2337 20.7069 29.1139 20.3645C29.9943 20.0218 29.936 19.1492 29.1139 18.604C28.2921 18.0589 5.72254 5.14592 5.0625 4.57881C4.40246 4.01147 3.26038 4.86308 3.26038 5.7757V5.77546Z" fill="#4F4F4F"/>
</svg>
