<svg width="18" height="35" viewBox="0 0 18 35" fill="none" xmlns="http://www.w3.org/2000/svg">
<path d="M0.404974 0.427321C0.639435 0.180305 0.950275 0.0301173 1.28097 0.00406475C1.61166 -0.0219878 1.94025 0.0778254 2.20699 0.285355L2.36208 0.427321L17.5943 16.4714C17.8288 16.7183 17.9714 17.0457 17.9961 17.394C18.0209 17.7424 17.9261 18.0885 17.7291 18.3694L17.5943 18.5328L2.36208 34.5768C2.11468 34.8354 1.7838 34.9862 1.43548 34.9991C1.08717 35.012 0.747044 34.8861 0.482981 34.6465C0.218918 34.4069 0.0503426 34.0713 0.0109005 33.7065C-0.0285435 33.3418 0.0640469 32.9748 0.270191 32.6788L0.404974 32.5154L14.6586 17.5021L0.404974 2.48874C0.145655 2.21526 0 1.84455 0 1.45803C0 1.07151 0.145655 0.700799 0.404974 0.427321Z" fill="#4F4F4F"/>
</svg>
