<svg width="14" height="24" viewBox="0 0 14 24" fill="none" xmlns="http://www.w3.org/2000/svg">
<path d="M0.535359 0.528277C0.192569 0.866635 0 1.32548 0 1.80392C0 2.28236 0.192569 2.74121 0.535359 3.07957L9.5864 12.0109L0.535359 20.9422C0.202284 21.2825 0.0179809 21.7383 0.022147 22.2114C0.0263131 22.6845 0.218614 23.137 0.557632 23.4715C0.89665 23.8061 1.35526 23.9958 1.83468 23.9999C2.31411 24.004 2.77599 23.8222 3.12085 23.4935L13.4646 13.2865C13.8074 12.9482 14 12.4893 14 12.0109C14 11.5325 13.8074 11.0736 13.4646 10.7352L3.12085 0.528277C2.77796 0.190021 2.31295 0 1.8281 0C1.34325 0 0.878252 0.190021 0.535359 0.528277Z" fill="#F2F2F2"/>
</svg>
